<svg xmlns="http://www.w3.org/2000/svg" viewBox="0 0 90 90" width="current" height="current">
  <g fill="current">
    <path d="M45,26.94A18.06,18.06,0,1,0,63.06,45,18.08,18.08,0,0,0,45,26.94Z"/>
    <path d="M45,20.88h0a3,3,0,0,1-3-3v-9a3,3,0,0,1,3-3h0a3,3,0,0,1,3,3v9A3,3,0,0,1,45,20.88Z"/>
    <path d="M25.83,28.83a3,3,0,0,1-2.13-.89l-6.37-6.39a3,3,0,1,1,4.25-4.23L28,23.71a3,3,0,0,1-2.12,5.12Z"/>
    <path d="M17.88,48h-9a3,3,0,0,1,0-6h9a3,3,0,0,1,0,6Z"/>
    <path d="M19.43,73.55a3,3,0,0,1-2.12-.88,3,3,0,0,1,0-4.25l6.39-6.37a3,3,0,0,1,4.23,4.25l-6.39,6.37A3,3,0,0,1,19.43,73.55Z"/>
    <path d="M45,84.14h0a3,3,0,0,1-3-3v-9a3,3,0,0,1,3-3h0a3,3,0,0,1,3,3v9A3,3,0,0,1,45,84.14Z"/>
    <path d="M70.55,73.57a3,3,0,0,1-2.13-.89l-6.37-6.39a3,3,0,0,1,4.25-4.23l6.37,6.39a3,3,0,0,1,0,4.24A3,3,0,0,1,70.55,73.57Z"/>
    <path d="M81.14,48h-9a3,3,0,0,1,0-6h9a3,3,0,0,1,0,6Z"/>
    <path d="M64.17,28.83a3,3,0,0,1-2.11-5.13l6.39-6.37a3,3,0,1,1,4.23,4.25L66.29,28A3,3,0,0,1,64.17,28.83Z"/>
  </g>
</svg>