<svg xmlns="http://www.w3.org/2000/svg" viewBox="0 0 90 90" width="current" height="current">
  <g fill="current">
    <path d="M45,9.84A36.05,36.05,0,0,0,33.61,80.1c1.8.33,2.46-.79,2.46-1.74s0-3.12,0-6.13C26,74.41,23.87,67.4,23.87,67.4c-1.64-4.17-4-5.28-4-5.28-3.27-2.23.25-2.19.25-2.19,3.62.26,5.52,3.72,5.52,3.72,3.22,5.51,8.44,3.91,10.49,3a7.71,7.71,0,0,1,2.29-4.82C30.42,60.91,22,57.82,22,44a13.92,13.92,0,0,1,3.71-9.68,13,13,0,0,1,.35-9.54s3-1,9.92,3.7a34,34,0,0,1,18.05,0c6.88-4.67,9.9-3.7,9.9-3.7a12.93,12.93,0,0,1,.36,9.54A13.92,13.92,0,0,1,68,44c0,13.84-8.42,16.89-16.45,17.78C52.83,62.91,54,65.11,54,68.47c0,4.82,0,8.71,0,9.89,0,1,.65,2.08,2.48,1.73A36.05,36.05,0,0,0,45,9.84Z" />
  </g>
</svg>