<svg xmlns="http://www.w3.org/2000/svg" viewBox="0 0 366.65 400">
  <g fill="current">
    <path id="cloud-1" d="M43.4,163.36c-5,.65-10.47.36-15.27,1.76-4.31,1.26-9,4.58-4.45,8.61,7,6.14,43.25.66,62.43.88,8.21.09,16.36,1.25,24.49,2.19,8,.93,15.63,2.27,23.46,0a84.78,84.78,0,0,0,17.27-7.09c6.26-3.43,7.66-6.54.14-9.83-17.07-7.46-23.48,1.81-44.18,0-9.11-.8-16.28-6-24.79-8.4a28.4,28.4,0,0,0-24.3,4.2c-2.44,1.82-4.57,4.05-7.27,5.48A21.54,21.54,0,0,1,43.4,163.36Z" transform="translate(39.26)" />
    <path id="cloud-2" d="M119.68,76.23c7.1,1.09,14.71.61,21.46,3,6.05,2.09,12.64,7.64,6.24,14.35-9.77,10.26-60.74,1.1-87.67,1.47-11.52.16-23,2.08-34.39,3.66-11.18,1.55-22,3.79-32.95,0A109,109,0,0,1-31.88,86.86c-8.79-5.72-10.77-10.91-.21-16.39,24-12.45,33,3,62.05,0,12.8-1.33,22.87-10,34.82-14a34.8,34.8,0,0,1,34.13,7c3.42,3,6.42,6.75,10.2,9.15A26.83,26.83,0,0,0,119.68,76.23Z" transform="translate(39.26)" />
    <path id="cloud-3" d="M158.24,124.39c-7.55.88-15.64.5-22.83,2.4C129,128.5,122,133,128.77,138.5c10.4,8.37,64.64.9,93.29,1.2,12.27.13,24.45,1.7,36.6,3,11.9,1.26,23.36,3.08,35.06,0a133.44,133.44,0,0,0,25.81-9.65c9.35-4.67,11.46-8.9.22-13.38-25.51-10.15-35.1,2.47-66,0-13.61-1.08-24.33-8.14-37.06-11.44-12.2-3.17-26.19-1.15-36.31,5.72-3.64,2.48-6.83,5.52-10.86,7.47A34.94,34.94,0,0,1,158.24,124.39Z" transform="translate(39.26)" />
  </g>
</svg>